<svg width="42" height="41" viewBox="0 0 42 41" xmlns="http://www.w3.org/2000/svg">
<path d="M25.126,24c-0.002,0.063-0.019,0.123-0.019,0.188c0,2.836,2.307,5.143,5.143,5.143s5.143-2.307,5.143-5.143
	c0-1.884-1.029-3.517-2.544-4.413c-0.185-0.115-0.374-0.221-0.572-0.312c-0.021-0.009-0.042-0.017-0.063-0.025
	C31.587,19.162,30.905,19,30.193,19c-1.812,0-3.463,0.975-4.35,2.5h-0.349V7.933c0-0.723,0.56-1.311,1.247-1.311H30.6
	c0.36,0,0.703,0.164,0.939,0.448l6.879,8.263h-5.697c-0.684,0-1.24-0.598-1.24-1.333V9.333C31.48,8.597,30.926,8,30.24,8
	C29.556,8,29,8.597,29,9.333V14c0,2.206,1.669,4,3.721,4h6.496v2.391c0,0.724-0.559,1.311-1.247,1.311s-1.247,0.587-1.247,1.312
	s0.559,1.312,1.247,1.312c2.063,0,3.742-1.765,3.742-3.934v-3.604c0-0.953-0.329-1.873-0.926-2.59l-7.37-8.854
	C32.706,4.49,31.68,4,30.6,4h-3.857c-0.944,0-1.797,0.381-2.456,0.99C23.612,4.378,22.734,4,21.766,4H3.841C1.723,4,0,5.764,0,7.934
	v12.458c0,2.169,1.723,3.933,3.841,3.933h1.906c0.075,2.771,2.34,5.006,5.129,5.006c2.835,0,5.143-2.307,5.143-5.143
	s-2.307-5.143-5.143-5.143c-1.93,0-3.595,1.082-4.475,2.659h-2.56c-0.706,0-1.28-0.588-1.28-1.312V7.934
	c0-0.724,0.574-1.312,1.28-1.312h17.925c0.652,0,1.172,0.51,1.249,1.158C23.013,7.833,23,7.881,23,7.933V21.5h-4.744
	C17.563,21.5,17,22.06,17,22.75c0,0.689,0.563,1.25,1.256,1.25H25.126z M10.875,21.744c1.347,0,2.442,1.097,2.442,2.443
	s-1.096,2.443-2.442,2.443s-2.442-1.097-2.442-2.443S9.529,21.744,10.875,21.744z M30.25,21.744c1.347,0,2.442,1.097,2.442,2.443
	s-1.096,2.443-2.442,2.443s-2.442-1.097-2.442-2.443S28.903,21.744,30.25,21.744z"/>
</svg>
