<svg width="42" height="41" viewBox="0 0 42 41" xmlns="http://www.w3.org/2000/svg">
<path d="M40.786,14.197l-7.37-8.854C32.706,4.49,31.68,4,30.6,4h-3.857c-0.944,0-1.797,0.381-2.456,0.99
	C23.612,4.378,22.734,4,21.766,4H17.75H17H3.841C1.723,4,0,5.764,0,7.934v12.458c0,2.169,1.723,3.933,3.841,3.933h1.906
	c0.075,2.771,2.34,5.006,5.129,5.006c2.835,0,5.143-2.307,5.143-5.143s-2.307-5.143-5.143-5.143c-1.93,0-3.595,1.082-4.475,2.659
	h-2.56c-0.706,0-1.28-0.588-1.28-1.312V7.934c0-0.724,0.574-1.312,1.28-1.312H17h0.75h4.016c0.652,0,1.172,0.51,1.249,1.158
	C23.013,7.833,23,7.881,23,7.933V21.5h-4.744C17.563,21.5,17,22.06,17,22.75c0,0.689,0.563,1.25,1.256,1.25h2.205v5.5
	c0,0.721-0.586,1.308-1.308,1.308h-5.558c-1.983,0-3.596,1.614-3.596,3.597S11.613,38,13.596,38h10.425c0.111,1.672,1.479,3,3.16,3
	h0.637c1.055,0,1.984-0.527,2.563-1.328h1.224c0.77,0,1.395-0.672,1.395-1.5s-0.625-1.5-1.395-1.5H31V36.5h0.605
	C32.375,36.5,33,35.828,33,35s-0.625-1.5-1.395-1.5H30.5c-0.565-0.898-1.553-1.5-2.682-1.5h-0.637C25.428,32,24,33.441,24,35.215
	v0.17H13.596c-0.541,0-0.981-0.439-0.981-0.98s0.44-0.98,0.981-0.98h5.558c2.164,0,3.923-1.76,3.923-3.924V24h2.049
	c-0.002,0.063-0.019,0.123-0.019,0.188c0,2.836,2.307,5.143,5.143,5.143s5.143-2.307,5.143-5.143c0-1.884-1.029-3.517-2.544-4.413
	c-0.185-0.115-0.374-0.221-0.572-0.312c-0.021-0.009-0.042-0.017-0.063-0.025C31.587,19.162,30.905,19,30.193,19
	c-1.812,0-3.463,0.975-4.35,2.5h-0.349V7.933c0-0.723,0.56-1.311,1.247-1.311H30.6c0.36,0,0.703,0.164,0.939,0.448l6.879,8.263
	h-5.697c-0.684,0-1.24-0.598-1.24-1.333V9.333C31.48,8.597,30.926,8,30.24,8C29.556,8,29,8.597,29,9.333V14c0,2.206,1.669,4,3.721,4
	h6.496v2.391c0,0.724-0.559,1.311-1.247,1.311s-1.247,0.587-1.247,1.312s0.559,1.312,1.247,1.312c2.063,0,3.742-1.765,3.742-3.934
	v-3.604C41.712,15.833,41.383,14.914,40.786,14.197z M10.875,21.744c1.347,0,2.442,1.097,2.442,2.443s-1.096,2.443-2.442,2.443
	s-2.442-1.097-2.442-2.443S9.529,21.744,10.875,21.744z M26.545,35.215c0-0.355,0.285-0.644,0.637-0.644h0.637
	c0.352,0,0.637,0.288,0.637,0.644v2.57c0,0.355-0.285,0.644-0.637,0.644h-0.637c-0.352,0-0.637-0.288-0.637-0.644V35.215z
	 M30.25,21.744c1.347,0,2.442,1.097,2.442,2.443s-1.096,2.443-2.442,2.443s-2.442-1.097-2.442-2.443S28.903,21.744,30.25,21.744z"/>
</svg>
