<svg width="42" height="41" viewBox="0 0 42 41" xmlns="http://www.w3.org/2000/svg">
    <path d="M33.617,13.072c-0.635-0.168-1.278,0.21-1.447,0.844l-0.548,2.079L23.283,1.486
	C22.749,0.556,21.791,0,20.723,0h0c-1.069,0-2.027,0.556-2.562,1.485l-5.632,9.798c-0.326,0.568-0.133,1.295,0.433,1.623
	c0.566,0.329,1.29,0.134,1.616-0.435l5.631-9.798c0.154-0.269,0.41-0.298,0.513-0.298c0.103,0,0.358,0.029,0.512,0.297l8.35,14.527
	l-2.114-0.563c-0.63-0.167-1.278,0.209-1.446,0.844s0.207,1.285,0.84,1.454l4.865,1.296c0.078,0.021,0.16,0.027,0.241,0.032
	c0.021,0.001,0.041,0.008,0.062,0.008l0,0c0.001,0,0.001,0,0.001,0c0.102,0,0.204-0.014,0.305-0.041
	c0.054-0.015,0.104-0.042,0.155-0.064c0.043-0.019,0.089-0.03,0.131-0.055v0c0.001,0,0.002,0,0.003-0.001
	c0.136-0.079,0.253-0.184,0.346-0.307c0.095-0.125,0.163-0.265,0.203-0.413c0-0.001,0.001-0.002,0.001-0.003l1.283-4.862
	C34.625,13.891,34.249,13.24,33.617,13.072z"/>
    <path d="M41.279,32.373l-5.621-9.779c-0.328-0.567-1.052-0.763-1.617-0.434c-0.565,0.327-0.759,1.055-0.434,1.623
	l5.622,9.778c0.153,0.269,0.051,0.505,0,0.595c-0.052,0.089-0.204,0.297-0.513,0.297H22.15l1.418-1.425
	c0.463-0.464,0.463-1.216,0-1.681c-0.461-0.464-1.211-0.464-1.672,0l-3.21,3.223C18.283,34.76,18,35.165,18,35.642
	c0,0.02,0.01,0.036,0.011,0.056C18.01,35.716,18,35.733,18,35.753c0,0.315,0.124,0.617,0.346,0.841l3.55,3.564
	c0.23,0.232,0.533,0.35,0.836,0.35s0.605-0.117,0.836-0.35c0.463-0.463,0.463-1.215,0-1.68l-1.641-1.648h16.789
	c1.07,0,2.027-0.557,2.563-1.486C41.813,34.414,41.813,33.303,41.279,32.373z"/>
    <path d="M14.215,34.463H2.962c-0.308,0-0.461-0.207-0.512-0.297c-0.052-0.089-0.154-0.326,0-0.594l8.338-14.508
	l0.572,2.122c0.143,0.529,0.62,0.878,1.141,0.878c0.103,0,0.207-0.014,0.31-0.042c0.631-0.172,1.004-0.824,0.833-1.457l-1.315-4.881
	c-0.009-0.032-0.032-0.057-0.043-0.087c-0.041-0.113-0.085-0.226-0.159-0.323c-0.077-0.101-0.179-0.18-0.285-0.252
	c-0.024-0.016-0.038-0.041-0.063-0.056c0,0-0.001,0-0.001,0c-0.001,0-0.001-0.001-0.002-0.001c-0.136-0.079-0.286-0.128-0.439-0.148
	c-0.154-0.02-0.31-0.008-0.458,0.032c0,0-0.001,0-0.001,0l-4.833,1.315c-0.63,0.171-1.003,0.824-0.833,1.458
	c0.171,0.633,0.82,1.009,1.452,0.836l2.065-0.562L0.401,32.384c-0.535,0.93-0.535,2.041,0,2.971
	c0.535,0.931,1.492,1.485,2.562,1.485h11.252c0.653,0,1.183-0.532,1.183-1.188C15.398,34.996,14.868,34.463,14.215,34.463z"/>
    <path d="M22.136,22.481H20V14h2.136V22.481z M22.136,26.797H20V24.74h2.136V26.797z"/>
</svg>
