<svg width="28" height="37" viewBox="0 0 28 37" fill="white" xmlns="http://www.w3.org/2000/svg">
    <path opacity="0.75" fill-rule="evenodd" clip-rule="evenodd" d="M28 14.0516C28 17.6007 26.472 20.5716 24.52 23.3418C23.7383 24.4761 22.8854 25.5701 22.0383 26.6564C21.5243 27.3157 21.0125 27.9722 20.52 28.6332C19.4213 30.0892 18.312 31.5372 17.192 32.9772C17.1552 33.0237 17.0594 33.1496 16.9224 33.3295C16.1374 34.3611 14.0002 37.1697 13.864 36.9919L4.992 25.2929C2.336 21.8081 0 18.6445 0 14.0516C0 6.29113 6.26801 0 14 0C21.732 0 28 6.29113 28 14.0516ZM14 20C17.3137 20 20 17.3137 20 14C20 10.6863 17.3137 8 14 8C10.6863 8 8 10.6863 8 14C8 17.3137 10.6863 20 14 20Z"/>
</svg>

